<svg version="1.1" id="Layer_1" xmlns="http://www.w3.org/2000/svg" xmlns:xlink="http://www.w3.org/1999/xlink" x="0px" y="0px"
	 width="100%" viewBox="0 0 334 305" enable-background="new 0 0 334 305" xml:space="preserve">
<path fill="#000000" opacity="1.000000" stroke="none" 
	d="
M196.000000,306.000000 
	C130.666687,306.000000 65.833382,306.000000 1.000052,306.000000 
	C1.000035,204.333389 1.000035,102.666786 1.000017,1.000134 
	C112.333229,1.000089 223.666458,1.000089 334.999756,1.000045 
	C334.999847,102.666534 334.999847,204.333069 334.999939,305.999817 
	C288.833344,306.000000 242.666672,306.000000 196.000000,306.000000 
M53.145176,112.388695 
	C53.097519,139.260498 53.043243,166.132294 53.042435,193.004089 
	C53.042416,193.640961 53.641567,194.277878 53.997391,195.808884 
	C54.322990,198.753372 54.712700,201.692429 54.962265,204.643341 
	C55.735241,213.783188 60.476841,221.494461 67.231384,226.416489 
	C78.469536,234.605698 90.967010,241.087860 103.046783,248.094727 
	C114.017487,254.458267 125.399467,260.146057 136.136978,266.871185 
	C156.734146,279.771667 177.233322,280.240509 198.248734,268.145874 
	C217.727325,256.935730 237.321167,245.925720 256.867340,234.833038 
	C272.385315,226.026382 282.744171,213.967392 282.864532,194.600891 
	C282.909546,168.235062 282.963013,141.869232 282.959900,115.503410 
	C282.959808,114.691414 282.372101,113.879494 281.992462,112.163651 
	C282.721802,103.645164 279.388031,96.338974 275.099121,89.350632 
	C269.292725,79.889755 259.639404,75.221542 250.500412,70.022583 
	C231.917389,59.451134 213.009308,49.435581 194.630325,38.525276 
	C175.459229,27.144735 156.868332,28.729090 138.227615,39.225643 
	C123.736252,47.385696 109.099434,55.323048 94.958153,64.057053 
	C85.019829,70.195213 73.844826,74.167747 65.589188,83.420746 
	C58.020828,91.903435 54.182720,101.045036 53.145176,112.388695 
z"/>
<path fill="#2B584D" opacity="1.000000" stroke="none" 
	d="
M282.060211,194.933258 
	C282.744171,213.967392 272.385315,226.026382 256.867340,234.833038 
	C237.321167,245.925720 217.727325,256.935730 198.248734,268.145874 
	C177.233322,280.240509 156.734146,279.771667 136.136978,266.871185 
	C125.399467,260.146057 114.017487,254.458267 103.046783,248.094727 
	C90.967010,241.087860 78.469536,234.605698 67.231384,226.416489 
	C60.476841,221.494461 55.735241,213.783188 54.962265,204.643341 
	C54.712700,201.692429 54.322990,198.753372 53.988083,194.897949 
	C53.974068,166.686981 53.969353,139.386963 53.964638,112.086929 
	C54.182720,101.045036 58.020828,91.903435 65.589188,83.420746 
	C73.844826,74.167747 85.019829,70.195213 94.958153,64.057053 
	C109.099434,55.323048 123.736252,47.385696 138.227615,39.225643 
	C156.868332,28.729090 175.459229,27.144735 194.630325,38.525276 
	C213.009308,49.435581 231.917389,59.451134 250.500412,70.022583 
	C259.639404,75.221542 269.292725,79.889755 275.099121,89.350632 
	C279.388031,96.338974 282.721802,103.645164 282.006653,113.080864 
	C282.033966,140.976471 282.047089,167.954865 282.060211,194.933258 
M268.540344,217.986893 
	C275.081207,210.067459 277.807190,200.851791 277.807434,190.710373 
	C277.808044,166.554718 277.723724,142.398651 277.836487,118.243515 
	C277.919495,100.462463 270.379944,87.410416 254.765305,78.738792 
	C232.981995,66.641380 211.258926,54.427021 189.715500,41.909153 
	C174.943359,33.325748 160.607376,33.338638 145.864319,41.843403 
	C124.134819,54.378399 102.272842,66.685318 80.401917,78.973015 
	C65.342049,87.434059 58.166218,100.302956 58.185760,117.429512 
	C58.213516,141.751724 58.192364,166.074005 58.192528,190.396255 
	C58.192642,207.358032 65.493507,220.068634 80.295418,228.441376 
	C102.126167,240.790024 123.973999,253.108963 145.757660,265.540253 
	C160.619507,274.021454 175.350845,274.027527 190.211960,265.556274 
	C212.001663,253.135559 233.921951,240.941742 255.616226,228.357544 
	C260.141876,225.732361 263.925659,221.828186 268.540344,217.986893 
z"/>
<path fill="#FFFFFF" opacity="1.000000" stroke="none" 
	d="
M53.554909,112.237808 
	C53.969353,139.386963 53.974068,166.686981 53.970016,194.450897 
	C53.641567,194.277878 53.042416,193.640961 53.042435,193.004089 
	C53.043243,166.132294 53.097519,139.260498 53.554909,112.237808 
z"/>
<path fill="#FFFFFF" opacity="1.000000" stroke="none" 
	d="
M282.462372,194.767075 
	C282.047089,167.954865 282.033966,140.976471 282.039581,113.532806 
	C282.372101,113.879494 282.959808,114.691414 282.959900,115.503410 
	C282.963013,141.869232 282.909546,168.235062 282.462372,194.767075 
z"/>
<path fill="#F4F8F7" opacity="1.000000" stroke="none" 
	d="
M268.295837,218.250168 
	C263.925659,221.828186 260.141876,225.732361 255.616226,228.357544 
	C233.921951,240.941742 212.001663,253.135559 190.211960,265.556274 
	C175.350845,274.027527 160.619507,274.021454 145.757660,265.540253 
	C123.973999,253.108963 102.126167,240.790024 80.295418,228.441376 
	C65.493507,220.068634 58.192642,207.358032 58.192528,190.396255 
	C58.192364,166.074005 58.213516,141.751724 58.185760,117.429512 
	C58.166218,100.302956 65.342049,87.434059 80.401917,78.973015 
	C102.272842,66.685318 124.134819,54.378399 145.864319,41.843403 
	C160.607376,33.338638 174.943359,33.325748 189.715500,41.909153 
	C211.258926,54.427021 232.981995,66.641380 254.765305,78.738792 
	C270.379944,87.410416 277.919495,100.462463 277.836487,118.243515 
	C277.723724,142.398651 277.808044,166.554718 277.807434,190.710373 
	C277.807190,200.851791 275.081207,210.067459 268.295837,218.250168 
M226.005005,68.465958 
	C212.673462,60.931778 199.310074,53.453228 186.019699,45.847084 
	C173.813568,38.861454 161.698929,38.905022 149.502213,45.825714 
	C127.208221,58.475842 104.884529,71.073608 82.583206,83.710846 
	C70.065460,90.804123 63.580589,101.466408 63.586246,115.956833 
	C63.596069,141.113937 63.609283,166.271088 63.580658,191.428146 
	C63.564159,205.926849 70.019249,216.625198 82.516533,223.725967 
	C104.658539,236.306717 126.841347,248.815643 149.008316,261.352448 
	C161.676239,268.516937 174.348419,268.503174 187.010605,261.343597 
	C209.178833,248.809021 231.360916,236.298798 253.500961,223.714645 
	C265.997803,216.611572 272.438721,205.904587 272.420197,191.406860 
	C272.388245,166.416397 272.384216,141.425842 272.419952,116.435379 
	C272.440979,101.730667 265.870392,90.991501 253.144562,83.843681 
	C244.292206,78.871513 235.464996,73.854599 226.005005,68.465958 
z"/>
<path fill="#3CB393" opacity="1.000000" stroke="none" 
	d="
M226.315781,68.661819 
	C235.464996,73.854599 244.292206,78.871513 253.144562,83.843681 
	C265.870392,90.991501 272.440979,101.730667 272.419952,116.435379 
	C272.384216,141.425842 272.388245,166.416397 272.420197,191.406860 
	C272.438721,205.904587 265.997803,216.611572 253.500961,223.714645 
	C231.360916,236.298798 209.178833,248.809021 187.010605,261.343597 
	C174.348419,268.503174 161.676239,268.516937 149.008316,261.352448 
	C126.841347,248.815643 104.658539,236.306717 82.516533,223.725967 
	C70.019249,216.625198 63.564159,205.926849 63.580658,191.428146 
	C63.609283,166.271088 63.596069,141.113937 63.586246,115.956833 
	C63.580589,101.466408 70.065460,90.804123 82.583206,83.710846 
	C104.884529,71.073608 127.208221,58.475842 149.502213,45.825714 
	C161.698929,38.905022 173.813568,38.861454 186.019699,45.847084 
	C199.310074,53.453228 212.673462,60.931778 226.315781,68.661819 
M89.950752,181.503021 
	C89.950752,190.407120 89.950752,199.311218 89.950752,208.288574 
	C141.915146,208.288574 193.105347,208.288574 244.577606,208.288574 
	C244.577606,194.044586 244.577606,180.138519 244.577606,165.887604 
	C193.080048,165.887604 141.730331,165.887604 89.950737,165.887604 
	C89.950737,170.904205 89.950737,175.704788 89.950752,181.503021 
M140.081009,144.403809 
	C142.815872,137.499130 142.141739,134.997772 136.301971,130.381821 
	C140.912750,125.589912 141.317795,120.707939 137.406723,117.066460 
	C133.653152,113.571632 126.393417,113.734810 122.882118,117.392960 
	C119.249207,121.177818 119.790276,125.800545 124.395775,130.325119 
	C117.466011,135.564102 117.292229,143.607498 124.018837,147.771820 
	C128.961426,150.831680 135.047775,149.764618 140.081009,144.403809 
M167.952606,142.177505 
	C169.240479,137.182236 168.891983,132.534821 164.617035,129.021393 
	C159.923615,125.164055 155.202637,126.764076 150.075043,130.120865 
	C150.553268,127.475723 150.389175,125.389259 151.301285,124.019341 
	C152.779037,121.799843 154.683380,119.071617 156.941422,118.426392 
	C158.613663,117.948555 161.107834,120.489807 163.285919,121.586700 
	C164.618149,122.257629 166.045044,122.740578 168.075729,123.572823 
	C166.994400,117.555809 164.071747,115.077675 159.391312,114.588654 
	C154.368439,114.063858 149.744522,115.901993 148.571869,120.638603 
	C147.057922,126.753784 146.696579,133.308929 146.885666,139.643356 
	C147.043732,144.938400 150.604660,148.412033 156.053223,149.335831 
	C161.593567,150.275208 165.350693,147.828903 167.952606,142.177505 
M211.118820,130.443832 
	C206.292480,125.130432 201.026550,126.160484 194.966370,130.271179 
	C195.559372,127.378235 195.439621,125.114479 196.462189,123.646347 
	C197.966751,121.486183 200.036255,119.037308 202.347244,118.362442 
	C203.871063,117.917450 206.214371,120.424500 208.243347,121.511566 
	C209.567841,122.221191 210.986603,122.754883 213.157242,123.720734 
	C211.955780,117.421608 208.862900,114.889603 203.985062,114.532745 
	C198.955460,114.164787 195.121918,116.356094 193.193832,120.963860 
	C190.265091,127.963058 189.766235,135.385208 192.697144,142.349472 
	C193.871246,145.139297 197.149963,147.651566 200.067200,148.949799 
	C203.946365,150.676086 208.076889,149.510284 210.782379,145.921524 
	C214.308136,141.244705 214.716888,136.196075 211.118820,130.443832 
M232.415787,115.940369 
	C228.114136,122.060547 223.705902,128.110245 219.581726,134.347763 
	C218.476273,136.019684 218.236877,138.264236 217.324295,141.103302 
	C223.171524,141.103302 227.743317,141.103302 232.450592,141.103302 
	C232.635239,143.915955 232.784454,146.188980 232.968353,148.990158 
	C239.503845,148.977448 235.458878,143.391068 237.698547,141.743332 
	C238.961655,140.776581 240.224762,139.809830 241.487869,138.843063 
	C240.083466,137.840698 238.679047,136.838333 236.945923,135.601364 
	C236.945923,130.022720 236.880219,124.041870 236.972214,118.063461 
	C237.022125,114.820877 236.009781,113.602493 232.415787,115.940369 
M112.282204,149.010391 
	C112.594200,148.288055 113.379234,147.270401 113.142250,146.890778 
	C111.469238,144.210876 109.734062,141.540222 107.727623,139.106628 
	C105.822433,136.795853 105.666519,134.947815 107.727936,132.593658 
	C109.877365,130.138977 111.606422,127.316208 113.658096,124.461189 
	C106.574051,122.425751 106.762054,129.960480 102.866600,131.728699 
	C96.265564,124.009079 96.265564,124.009079 92.667503,124.938377 
	C94.448685,127.485435 95.960632,130.074554 97.892754,132.298660 
	C100.137650,134.882797 100.251556,136.981369 97.957001,139.654617 
	C95.660957,142.329605 93.849060,145.420135 91.605408,148.643967 
	C99.562805,150.397858 98.809723,141.827896 102.663055,140.368774 
	C105.843048,143.474869 108.680435,146.246307 112.282204,149.010391 
M185.594879,134.449585 
	C182.285828,134.376556 178.970490,134.171600 175.672394,134.328613 
	C174.902817,134.365234 173.472260,135.836960 173.601654,136.288803 
	C173.881958,137.267700 174.904251,138.646271 175.747437,138.739700 
	C178.532837,139.048431 181.426773,139.162292 184.161804,138.682571 
	C185.028397,138.530563 185.527588,136.283890 185.594879,134.449585 
z"/>
<path fill="#EAF7F3" opacity="1.000000" stroke="none" 
	d="
M89.950745,181.004196 
	C89.950737,175.704788 89.950737,170.904205 89.950737,165.887604 
	C141.730331,165.887604 193.080048,165.887604 244.577606,165.887604 
	C244.577606,180.138519 244.577606,194.044586 244.577606,208.288574 
	C193.105347,208.288574 141.915146,208.288574 89.950752,208.288574 
	C89.950752,199.311218 89.950752,190.407120 89.950745,181.004196 
M207.500031,168.174072 
	C169.431900,168.174072 131.363770,168.174072 93.122269,168.174072 
	C93.122269,181.033783 93.122269,193.239426 93.122269,205.593399 
	C142.841690,205.593399 192.190369,205.593399 241.677185,205.593399 
	C241.677185,193.070663 241.677185,180.856430 241.677185,168.174133 
	C230.402496,168.174133 219.451263,168.174133 207.500031,168.174072 
z"/>
<path fill="#F4FBF9" opacity="1.000000" stroke="none" 
	d="
M139.871979,144.716446 
	C135.047775,149.764618 128.961426,150.831680 124.018837,147.771820 
	C117.292229,143.607498 117.466011,135.564102 124.395775,130.325119 
	C119.790276,125.800545 119.249207,121.177818 122.882118,117.392960 
	C126.393417,113.734810 133.653152,113.571632 137.406723,117.066460 
	C141.317795,120.707939 140.912750,125.589912 136.301971,130.381821 
	C142.141739,134.997772 142.815872,137.499130 139.871979,144.716446 
M126.225082,133.567856 
	C121.935425,138.658096 123.219383,145.125381 128.934784,145.666977 
	C131.246216,145.885986 134.784409,144.474533 135.916779,142.655136 
	C137.061661,140.815628 136.757690,137.074951 135.586746,135.024765 
	C133.772552,131.848312 130.274292,131.478867 126.225082,133.567856 
M126.205429,119.783218 
	C124.081207,122.911003 124.180756,126.112656 127.637825,127.691338 
	C129.412521,128.501755 132.912903,128.016388 134.189072,126.707909 
	C135.367203,125.499947 135.477463,121.915802 134.525894,120.257294 
	C132.811234,117.268730 129.682037,117.272591 126.205429,119.783218 
z"/>
<path fill="#F4FBF9" opacity="1.000000" stroke="none" 
	d="
M167.819275,142.536560 
	C165.350693,147.828903 161.593567,150.275208 156.053223,149.335831 
	C150.604660,148.412033 147.043732,144.938400 146.885666,139.643356 
	C146.696579,133.308929 147.057922,126.753784 148.571869,120.638603 
	C149.744522,115.901993 154.368439,114.063858 159.391312,114.588654 
	C164.071747,115.077675 166.994400,117.555809 168.075729,123.572823 
	C166.045044,122.740578 164.618149,122.257629 163.285919,121.586700 
	C161.107834,120.489807 158.613663,117.948555 156.941422,118.426392 
	C154.683380,119.071617 152.779037,121.799843 151.301285,124.019341 
	C150.389175,125.389259 150.553268,127.475723 150.075043,130.120865 
	C155.202637,126.764076 159.923615,125.164055 164.617035,129.021393 
	C168.891983,132.534821 169.240479,137.182236 167.819275,142.536560 
M164.094666,136.760620 
	C163.451324,132.419510 161.032776,130.172653 156.568100,130.754440 
	C152.832336,131.241226 150.527512,134.718079 151.090195,138.944855 
	C151.599014,142.767090 153.476944,145.597626 157.650894,145.921997 
	C161.446106,146.216980 163.644104,143.270660 164.094666,136.760620 
z"/>
<path fill="#F4FBF9" opacity="1.000000" stroke="none" 
	d="
M211.349396,130.751740 
	C214.716888,136.196075 214.308136,141.244705 210.782379,145.921524 
	C208.076889,149.510284 203.946365,150.676086 200.067200,148.949799 
	C197.149963,147.651566 193.871246,145.139297 192.697144,142.349472 
	C189.766235,135.385208 190.265091,127.963058 193.193832,120.963860 
	C195.121918,116.356094 198.955460,114.164787 203.985062,114.532745 
	C208.862900,114.889603 211.955780,117.421608 213.157242,123.720734 
	C210.986603,122.754883 209.567841,122.221191 208.243347,121.511566 
	C206.214371,120.424500 203.871063,117.917450 202.347244,118.362442 
	C200.036255,119.037308 197.966751,121.486183 196.462189,123.646347 
	C195.439621,125.114479 195.559372,127.378235 194.966370,130.271179 
	C201.026550,126.160484 206.292480,125.130432 211.349396,130.751740 
M208.647141,141.669617 
	C209.664856,135.326477 208.461761,131.945679 204.616837,130.919022 
	C200.901550,129.926987 197.968033,131.242020 196.613449,134.836044 
	C195.131592,138.767670 195.933075,142.505051 199.570496,144.881363 
	C203.151962,147.221115 206.147110,145.985168 208.647141,141.669617 
z"/>
<path fill="#F5FBF9" opacity="1.000000" stroke="none" 
	d="
M232.654327,115.666634 
	C236.009781,113.602493 237.022125,114.820877 236.972214,118.063461 
	C236.880219,124.041870 236.945923,130.022720 236.945923,135.601364 
	C238.679047,136.838333 240.083466,137.840698 241.487869,138.843063 
	C240.224762,139.809830 238.961655,140.776581 237.698547,141.743332 
	C235.458878,143.391068 239.503845,148.977448 232.968353,148.990158 
	C232.784454,146.188980 232.635239,143.915955 232.450592,141.103302 
	C227.743317,141.103302 223.171524,141.103302 217.324295,141.103302 
	C218.236877,138.264236 218.476273,136.019684 219.581726,134.347763 
	C223.705902,128.110245 228.114136,122.060547 232.654327,115.666634 
M232.771225,128.728439 
	C232.771225,126.811150 232.771225,124.893852 232.771225,122.976562 
	C232.391815,122.863632 232.012405,122.750710 231.632996,122.637787 
	C228.536285,127.136688 225.439560,131.635590 221.952240,136.701935 
	C225.997009,136.701935 229.062897,136.701935 232.771072,136.701935 
	C232.771072,134.173416 232.771072,131.895401 232.771225,128.728439 
z"/>
<path fill="#F3FAF8" opacity="1.000000" stroke="none" 
	d="
M111.900009,149.014069 
	C108.680435,146.246307 105.843048,143.474869 102.663055,140.368774 
	C98.809723,141.827896 99.562805,150.397858 91.605408,148.643967 
	C93.849060,145.420135 95.660957,142.329605 97.957001,139.654617 
	C100.251556,136.981369 100.137650,134.882797 97.892754,132.298660 
	C95.960632,130.074554 94.448685,127.485435 92.667503,124.938377 
	C96.265564,124.009079 96.265564,124.009079 102.866600,131.728699 
	C106.762054,129.960480 106.574051,122.425751 113.658096,124.461189 
	C111.606422,127.316208 109.877365,130.138977 107.727936,132.593658 
	C105.666519,134.947815 105.822433,136.795853 107.727623,139.106628 
	C109.734062,141.540222 111.469238,144.210876 113.142250,146.890778 
	C113.379234,147.270401 112.594200,148.288055 111.900009,149.014069 
z"/>
<path fill="#DAF0EB" opacity="1.000000" stroke="none" 
	d="
M185.894897,134.722687 
	C185.527588,136.283890 185.028397,138.530563 184.161804,138.682571 
	C181.426773,139.162292 178.532837,139.048431 175.747437,138.739700 
	C174.904251,138.646271 173.881958,137.267700 173.601654,136.288803 
	C173.472260,135.836960 174.902817,134.365234 175.672394,134.328613 
	C178.970490,134.171600 182.285828,134.376556 185.894897,134.722687 
z"/>
<path fill="#3EB494" opacity="1.000000" stroke="none" 
	d="
M208.000031,168.174103 
	C219.451263,168.174133 230.402496,168.174133 241.677185,168.174133 
	C241.677185,180.856430 241.677185,193.070663 241.677185,205.593399 
	C192.190369,205.593399 142.841690,205.593399 93.122269,205.593399 
	C93.122269,193.239426 93.122269,181.033783 93.122269,168.174072 
	C131.363770,168.174072 169.431900,168.174072 208.000031,168.174103 
M171.190811,182.754639 
	C170.159912,182.901184 168.235489,183.015198 168.228790,183.199051 
	C168.062180,187.772903 168.098099,192.354126 168.098099,196.934052 
	C168.771545,196.971741 169.445007,197.009445 170.118454,197.047150 
	C170.368042,195.513290 170.626328,193.980789 170.865265,192.445267 
	C171.285690,189.743347 171.694290,187.039581 172.912415,184.166000 
	C176.547684,183.492233 177.118698,185.675629 177.134064,188.557541 
	C177.148987,191.356506 177.344284,194.154480 177.460373,196.952896 
	C178.297226,196.924423 179.134079,196.895950 179.970932,196.867477 
	C179.970932,193.846191 179.872253,190.820938 179.992966,187.804489 
	C180.198181,182.676270 177.111115,180.750885 171.190811,182.754639 
M110.599419,195.285431 
	C111.532143,195.379456 112.464874,195.473480 113.397598,195.567505 
	C113.290604,192.085175 113.797615,188.415298 112.815651,185.200211 
	C112.330086,183.610413 109.167145,182.150757 107.090462,181.954193 
	C105.457726,181.799622 103.633064,183.672424 101.893661,184.644653 
	C102.116959,185.044159 102.340256,185.443649 102.563553,185.843155 
	C109.753777,183.187088 109.753777,183.187088 110.183754,186.383774 
	C106.866859,188.462540 103.921387,190.140610 101.292542,192.219147 
	C101.033356,192.424103 102.591911,196.265961 103.518974,196.361557 
	C105.605095,196.576614 107.824463,195.499344 109.926544,194.958862 
	C109.926544,194.958862 109.912926,195.021393 110.599419,195.285431 
M197.409210,183.420700 
	C197.079269,180.950455 196.749344,178.480225 196.335785,175.383835 
	C193.805420,178.564972 193.320068,190.902756 194.919937,196.754684 
	C196.207230,196.634705 197.663147,196.064972 198.742310,196.478455 
	C202.207886,197.806351 205.114059,197.337982 206.908554,194.067520 
	C208.905792,190.427567 208.921249,186.445099 205.856842,183.443039 
	C203.432541,181.068054 200.338272,180.338531 198.001450,183.994720 
	C198.001450,183.994720 198.016876,183.953094 197.409210,183.420700 
M154.174454,196.718918 
	C157.731567,197.471542 160.965530,197.438202 162.876358,193.239731 
	C154.010712,194.510483 154.010712,194.510483 153.128174,190.099457 
	C156.454590,190.099457 159.687546,190.099457 162.920486,190.099457 
	C163.288208,189.666336 163.655945,189.233231 164.023666,188.800110 
	C162.483551,186.589127 161.379227,183.584030 159.263077,182.422729 
	C157.621246,181.521744 154.216614,182.215744 152.473587,183.445389 
	C148.573563,186.196701 149.292480,192.365097 154.174454,196.718918 
M220.883987,184.792328 
	C221.739716,187.129593 222.459702,189.528137 223.481430,191.790436 
	C225.225662,195.652573 226.348419,199.267944 220.814789,201.570084 
	C226.051300,202.935211 233.538864,189.265076 231.943024,180.395050 
	C229.924545,185.359863 228.430954,189.033600 226.612686,193.505951 
	C225.219223,189.499542 224.271805,186.490631 223.086487,183.578583 
	C222.808533,182.895706 221.725952,182.540375 221.013550,182.034348 
	C220.892029,182.712616 220.770508,183.390900 220.883987,184.792328 
M126.067314,191.348511 
	C126.138603,192.334076 126.209900,193.319656 126.281189,194.305222 
	C124.864700,194.356354 123.409767,194.628326 122.043579,194.390488 
	C120.897903,194.191025 119.855782,193.396774 118.767807,192.865860 
	C118.686592,194.425171 119.070419,195.592255 119.607071,195.667328 
	C122.241631,196.036041 124.974251,196.491226 127.547638,196.098816 
	C128.496887,195.954056 130.068329,192.831696 129.692871,192.341629 
	C128.414993,190.673721 126.435143,189.516739 124.645256,188.277435 
	C123.444885,187.446304 122.112366,186.806015 120.838982,186.080338 
	C121.051880,185.435303 121.264786,184.790283 121.477692,184.145248 
	C123.967316,184.615631 126.456947,185.085999 129.410461,185.644012 
	C128.294342,182.028564 125.686852,181.096161 122.896996,181.921280 
	C121.194061,182.424942 119.943779,184.459091 118.490181,185.805817 
	C119.986870,187.302887 121.418152,188.875580 123.014931,190.256958 
	C123.591278,190.755554 124.564743,190.795105 126.067314,191.348511 
M142.067307,191.348526 
	C142.138596,192.334091 142.209885,193.319656 142.281174,194.305206 
	C140.864685,194.356339 139.409744,194.628326 138.043564,194.390503 
	C136.897873,194.191055 135.855759,193.396774 134.767792,192.865860 
	C134.686081,194.424438 135.070099,195.592117 135.607071,195.667297 
	C138.241592,196.036148 140.974243,196.491226 143.547638,196.098816 
	C144.496887,195.954086 146.068329,192.831680 145.692871,192.341629 
	C144.414993,190.673721 142.435165,189.516739 140.645264,188.277435 
	C139.444885,187.446304 138.112366,186.806030 136.838974,186.080353 
	C137.052856,185.435501 137.266754,184.790649 137.480637,184.145798 
	C139.969376,184.615997 142.458099,185.086197 145.213303,185.606735 
	C144.397995,181.862671 141.638672,181.155731 138.896240,181.926849 
	C137.198242,182.404312 135.943756,184.459106 134.490173,185.805847 
	C135.986877,187.302917 137.418152,188.875595 139.014938,190.256958 
	C139.591293,190.755554 140.564774,190.795090 142.067307,191.348526 
M215.943451,177.989914 
	C215.545807,177.368317 215.148163,176.746719 214.750488,176.125107 
	C214.205734,176.947968 213.209839,177.759781 213.189377,178.595474 
	C213.055252,184.072983 213.084030,189.556641 213.199814,195.035339 
	C213.214417,195.726624 214.047989,196.400589 214.502106,197.082565 
	C214.990204,197.013565 215.478302,196.944580 215.966400,196.875580 
	C215.966400,190.885468 215.966400,184.895370 215.943451,177.989914 
M188.825684,185.338882 
	C186.034485,180.827423 184.002090,180.413452 180.503540,184.191589 
	C185.765808,183.051422 186.266190,185.949219 186.331055,189.770233 
	C186.371399,192.148209 184.836258,195.234024 188.957611,197.564789 
	C188.957611,193.276321 188.957611,189.728210 188.825684,185.338882 
z"/>
<path fill="#42B596" opacity="1.000000" stroke="none" 
	d="
M126.538879,133.361938 
	C130.274292,131.478867 133.772552,131.848312 135.586746,135.024765 
	C136.757690,137.074951 137.061661,140.815628 135.916779,142.655136 
	C134.784409,144.474533 131.246216,145.885986 128.934784,145.666977 
	C123.219383,145.125381 121.935425,138.658096 126.538879,133.361938 
z"/>
<path fill="#43B597" opacity="1.000000" stroke="none" 
	d="
M126.489410,119.507523 
	C129.682037,117.272591 132.811234,117.268730 134.525894,120.257294 
	C135.477463,121.915802 135.367203,125.499947 134.189072,126.707909 
	C132.912903,128.016388 129.412521,128.501755 127.637825,127.691338 
	C124.180756,126.112656 124.081207,122.911003 126.489410,119.507523 
z"/>
<path fill="#3FB495" opacity="1.000000" stroke="none" 
	d="
M164.132721,137.177216 
	C163.644104,143.270660 161.446106,146.216980 157.650894,145.921997 
	C153.476944,145.597626 151.599014,142.767090 151.090195,138.944855 
	C150.527512,134.718079 152.832336,131.241226 156.568100,130.754440 
	C161.032776,130.172653 163.451324,132.419510 164.132721,137.177216 
z"/>
<path fill="#3FB495" opacity="1.000000" stroke="none" 
	d="
M208.439331,142.019257 
	C206.147110,145.985168 203.151962,147.221115 199.570496,144.881363 
	C195.933075,142.505051 195.131592,138.767670 196.613449,134.836044 
	C197.968033,131.242020 200.901550,129.926987 204.616837,130.919022 
	C208.461761,131.945679 209.664856,135.326477 208.439331,142.019257 
z"/>
<path fill="#4DB99C" opacity="1.000000" stroke="none" 
	d="
M232.771149,129.172913 
	C232.771072,131.895401 232.771072,134.173416 232.771072,136.701935 
	C229.062897,136.701935 225.997009,136.701935 221.952240,136.701935 
	C225.439560,131.635590 228.536285,127.136688 231.632996,122.637787 
	C232.012405,122.750710 232.391815,122.863632 232.771225,122.976562 
	C232.771225,124.893852 232.771225,126.811150 232.771149,129.172913 
z"/>
<path fill="#E8F6F2" opacity="1.000000" stroke="none" 
	d="
M197.959747,184.008820 
	C200.338272,180.338531 203.432541,181.068054 205.856842,183.443039 
	C208.921249,186.445099 208.905792,190.427567 206.908554,194.067520 
	C205.114059,197.337982 202.207886,197.806351 198.742310,196.478455 
	C197.663147,196.064972 196.207230,196.634705 194.919937,196.754684 
	C193.320068,190.902756 193.805420,178.564972 196.335785,175.383835 
	C196.749344,178.480225 197.079269,180.950455 197.922394,184.056763 
	C197.972992,186.592987 196.732910,188.750107 197.253510,190.325333 
	C197.844254,192.112854 200.011017,193.379517 201.492615,194.872620 
	C202.749222,193.344971 204.768127,191.971817 205.115128,190.259811 
	C206.042603,185.683701 203.955795,184.076370 197.959747,184.008820 
z"/>
<path fill="#F0F9F6" opacity="1.000000" stroke="none" 
	d="
M109.989601,194.948044 
	C107.824463,195.499344 105.605095,196.576614 103.518974,196.361557 
	C102.591911,196.265961 101.033356,192.424103 101.292542,192.219147 
	C103.921387,190.140610 106.866859,188.462540 110.183754,186.383774 
	C109.753777,183.187088 109.753777,183.187088 102.563553,185.843155 
	C102.340256,185.443649 102.116959,185.044159 101.893661,184.644653 
	C103.633064,183.672424 105.457726,181.799622 107.090462,181.954193 
	C109.167145,182.150757 112.330086,183.610413 112.815651,185.200211 
	C113.797615,188.415298 113.290604,192.085175 113.397598,195.567505 
	C112.464874,195.473480 111.532143,195.379456 110.129608,194.782730 
	C110.103821,193.089615 110.547844,191.899185 110.991867,190.708755 
	C110.681839,190.272797 110.371811,189.836823 110.061783,189.400848 
	C108.017517,190.476547 105.973251,191.552261 103.928986,192.627960 
	C105.949188,193.401321 107.969391,194.174683 109.989601,194.948044 
z"/>
<path fill="#EEF8F6" opacity="1.000000" stroke="none" 
	d="
M153.825165,196.524567 
	C149.292480,192.365097 148.573563,186.196701 152.473587,183.445389 
	C154.216614,182.215744 157.621246,181.521744 159.263077,182.422729 
	C161.379227,183.584030 162.483551,186.589127 164.023666,188.800110 
	C163.655945,189.233231 163.288208,189.666336 162.920486,190.099457 
	C159.687546,190.099457 156.454590,190.099457 153.128174,190.099457 
	C154.010712,194.510483 154.010712,194.510483 162.876358,193.239731 
	C160.965530,197.438202 157.731567,197.471542 153.825165,196.524567 
M155.747787,188.040695 
	C157.176117,187.965652 158.604431,187.890610 160.225433,187.805450 
	C159.920395,184.045395 157.737976,183.328217 155.120743,184.376236 
	C153.771439,184.916550 151.086868,186.586426 155.747787,188.040695 
z"/>
<path fill="#E6F5F1" opacity="1.000000" stroke="none" 
	d="
M220.766479,184.430756 
	C220.770508,183.390900 220.892029,182.712616 221.013550,182.034348 
	C221.725952,182.540375 222.808533,182.895706 223.086487,183.578583 
	C224.271805,186.490631 225.219223,189.499542 226.612686,193.505951 
	C228.430954,189.033600 229.924545,185.359863 231.943024,180.395050 
	C233.538864,189.265076 226.051300,202.935211 220.814789,201.570084 
	C226.348419,199.267944 225.225662,195.652573 223.481430,191.790436 
	C222.459702,189.528137 221.739716,187.129593 220.766479,184.430756 
z"/>
<path fill="#EBF7F4" opacity="1.000000" stroke="none" 
	d="
M125.712158,191.196320 
	C124.564743,190.795105 123.591278,190.755554 123.014931,190.256958 
	C121.418152,188.875580 119.986870,187.302887 118.490189,185.805817 
	C119.943779,184.459091 121.194061,182.424942 122.896996,181.921280 
	C125.686852,181.096161 128.294342,182.028564 129.410461,185.644012 
	C126.456947,185.085999 123.967316,184.615631 121.477692,184.145248 
	C121.264786,184.790283 121.051880,185.435303 120.838982,186.080338 
	C122.112366,186.806015 123.444885,187.446304 124.645256,188.277435 
	C126.435143,189.516739 128.414993,190.673721 129.692871,192.341629 
	C130.068329,192.831696 128.496887,195.954056 127.547638,196.098816 
	C124.974251,196.491226 122.241631,196.036041 119.607071,195.667328 
	C119.070419,195.592255 118.686592,194.425171 118.767807,192.865860 
	C119.855782,193.396774 120.897903,194.191025 122.043579,194.390488 
	C123.409767,194.628326 124.864700,194.356354 126.281189,194.305222 
	C126.209900,193.319656 126.138603,192.334076 125.712158,191.196320 
z"/>
<path fill="#EBF7F4" opacity="1.000000" stroke="none" 
	d="
M141.712158,191.196320 
	C140.564774,190.795090 139.591293,190.755554 139.014938,190.256958 
	C137.418152,188.875595 135.986877,187.302917 134.490173,185.805847 
	C135.943756,184.459106 137.198242,182.404312 138.896240,181.926849 
	C141.638672,181.155731 144.397995,181.862671 145.213303,185.606735 
	C142.458099,185.086197 139.969376,184.615997 137.480637,184.145798 
	C137.266754,184.790649 137.052856,185.435501 136.838974,186.080353 
	C138.112366,186.806030 139.444885,187.446304 140.645264,188.277435 
	C142.435165,189.516739 144.414993,190.673721 145.692871,192.341629 
	C146.068329,192.831680 144.496887,195.954086 143.547638,196.098816 
	C140.974243,196.491226 138.241592,196.036148 135.607071,195.667297 
	C135.070099,195.592117 134.686081,194.424438 134.767792,192.865860 
	C135.855759,193.396774 136.897873,194.191055 138.043564,194.390503 
	C139.409744,194.628326 140.864685,194.356339 142.281158,194.305206 
	C142.209885,193.319656 142.138596,192.334091 141.712158,191.196320 
z"/>
<path fill="#E1F3EE" opacity="1.000000" stroke="none" 
	d="
M215.954926,178.447586 
	C215.966400,184.895370 215.966400,190.885468 215.966400,196.875580 
	C215.478302,196.944580 214.990204,197.013565 214.502106,197.082565 
	C214.047989,196.400589 213.214417,195.726624 213.199814,195.035339 
	C213.084030,189.556641 213.055252,184.072983 213.189377,178.595474 
	C213.209839,177.759781 214.205734,176.947968 214.750504,176.125122 
	C215.148163,176.746719 215.545807,177.368317 215.954926,178.447586 
z"/>
<path fill="#E7F5F1" opacity="1.000000" stroke="none" 
	d="
M188.891647,185.759491 
	C188.957611,189.728210 188.957611,193.276321 188.957611,197.564789 
	C184.836258,195.234024 186.371399,192.148209 186.331055,189.770233 
	C186.266190,185.949219 185.765808,183.051422 180.503540,184.191589 
	C184.002090,180.413452 186.034485,180.827423 188.891647,185.759491 
z"/>
<path fill="#E7F5F1" opacity="1.000000" stroke="none" 
	d="
M171.960709,182.893982 
	C177.111115,180.750885 180.198181,182.676270 179.992966,187.804489 
	C179.872253,190.820938 179.970932,193.846191 179.970932,196.867477 
	C179.134079,196.895950 178.297226,196.924423 177.460373,196.952896 
	C177.344284,194.154480 177.148987,191.356506 177.134064,188.557541 
	C177.118698,185.675629 176.547684,183.492233 172.472717,183.890656 
	C172.008911,183.374878 171.984802,183.134430 171.960709,182.893982 
z"/>
<path fill="#E2F4EF" opacity="1.000000" stroke="none" 
	d="
M171.575760,182.824310 
	C171.984802,183.134430 172.008911,183.374878 172.070419,183.975952 
	C171.694290,187.039581 171.285690,189.743347 170.865265,192.445267 
	C170.626328,193.980789 170.368042,195.513290 170.118454,197.047150 
	C169.445007,197.009445 168.771545,196.971741 168.098099,196.934052 
	C168.098099,192.354126 168.062180,187.772903 168.228790,183.199051 
	C168.235489,183.015198 170.159912,182.901184 171.575760,182.824310 
z"/>
<path fill="#40B495" opacity="1.000000" stroke="none" 
	d="
M197.980591,184.001770 
	C203.955795,184.076370 206.042603,185.683701 205.115128,190.259811 
	C204.768127,191.971817 202.749222,193.344971 201.492615,194.872620 
	C200.011017,193.379517 197.844254,192.112854 197.253510,190.325333 
	C196.732910,188.750107 197.972992,186.592987 198.226227,184.322952 
	C198.016876,183.953094 198.001450,183.994720 197.980591,184.001770 
z"/>
<path fill="#49B89A" opacity="1.000000" stroke="none" 
	d="
M109.958069,194.953461 
	C107.969391,194.174683 105.949188,193.401321 103.928986,192.627960 
	C105.973251,191.552261 108.017517,190.476547 110.061783,189.400848 
	C110.371811,189.836823 110.681839,190.272797 110.991867,190.708755 
	C110.547844,191.899185 110.103821,193.089615 109.786362,194.650711 
	C109.912926,195.021393 109.926544,194.958862 109.958069,194.953461 
z"/>
<path fill="#46B798" opacity="1.000000" stroke="none" 
	d="
M155.321655,188.032776 
	C151.086868,186.586426 153.771439,184.916550 155.120743,184.376236 
	C157.737976,183.328217 159.920395,184.045395 160.225433,187.805450 
	C158.604431,187.890610 157.176117,187.965652 155.321655,188.032776 
z"/>
</svg>