<?xml version="1.0" encoding="utf-8"?>
<!-- Generator: Adobe Illustrator 26.0.3, SVG Export Plug-In . SVG Version: 6.00 Build 0)  -->
<svg version="1.0" id="Layer_1" xmlns="http://www.w3.org/2000/svg" xmlns:xlink="http://www.w3.org/1999/xlink" x="0px" y="0px"
	 viewBox="0 0 895.4 581.6" style="enable-background:new 0 0 895.4 581.6;" xml:space="preserve">
<style type="text/css">
	.st0{fill:url(#SVGID_1_);}
	.st1{fill:url(#SVGID_00000168097519056800615730000018369538778446218427_);}
	.st2{fill:url(#SVGID_00000080173804198901401130000011850322856708138405_);}
	.st3{fill:url(#SVGID_00000136373521072082668820000005063762470381649843_);}
	.st4{fill:#231F20;}
</style>
<linearGradient id="SVGID_1_" gradientUnits="userSpaceOnUse" x1="297.4012" y1="186.2201" x2="293.7012" y2="292.2401" gradientTransform="matrix(1 0 0 -1 0 583.2806)">
	<stop  offset="0" style="stop-color:#9E1E2E"/>
	<stop  offset="0.49" style="stop-color:#AF1F2D"/>
	<stop  offset="0.96" style="stop-color:#BA202E"/>
</linearGradient>
<rect x="271.3" y="199.6" class="st0" width="44.7" height="181.7"/>
<linearGradient id="SVGID_00000137098880607136151390000000070029109201371827_" gradientUnits="userSpaceOnUse" x1="232.0315" y1="160.3003" x2="232.0315" y2="361.0103" gradientTransform="matrix(1 0 0 -1 0 583.2806)">
	<stop  offset="0" style="stop-color:#B4802D"/>
	<stop  offset="0.27" style="stop-color:#CF9235"/>
	<stop  offset="0.5" style="stop-color:#E29F3A"/>
	<stop  offset="0.72" style="stop-color:#FAAE41"/>
	<stop  offset="0.94" style="stop-color:#FAAE41"/>
</linearGradient>
<rect x="209.7" y="274.3" style="fill:url(#SVGID_00000137098880607136151390000000070029109201371827_);" width="44.7" height="107"/>
<linearGradient id="SVGID_00000085210790149233231770000008058137328758230410_" gradientUnits="userSpaceOnUse" x1="170.3815" y1="169.2403" x2="170.3815" y2="339.1503" gradientTransform="matrix(1 0 0 -1 0 583.2806)">
	<stop  offset="0.12" style="stop-color:#62923F"/>
	<stop  offset="0.34" style="stop-color:#76A842"/>
	<stop  offset="0.53" style="stop-color:#85BE40"/>
	<stop  offset="0.8" style="stop-color:#8BC540"/>
	<stop  offset="0.91" style="stop-color:#8BC540"/>
</linearGradient>
<rect x="148" y="247.3" style="fill:url(#SVGID_00000085210790149233231770000008058137328758230410_);" width="44.7" height="134"/>
<linearGradient id="SVGID_00000090997312490379131690000000270411160505878416_" gradientUnits="userSpaceOnUse" x1="108.7315" y1="178.1703" x2="108.7315" y2="363.6403" gradientTransform="matrix(1 0 0 -1 0 583.2806)">
	<stop  offset="0" style="stop-color:#0481B2"/>
	<stop  offset="0.29" style="stop-color:#0092C7"/>
	<stop  offset="0.5" style="stop-color:#0FA0DB"/>
	<stop  offset="0.94" style="stop-color:#C1E2F6"/>
</linearGradient>
<rect x="86.4" y="293.2" style="fill:url(#SVGID_00000090997312490379131690000000270411160505878416_);" width="44.7" height="88.1"/>
<path class="st4" d="M588.9,287.8c0-7.4-6-13.4-13.4-13.4h-14.2V382h27.6V287.8z"/>
<path class="st4" d="M626.4,314.8c0-6.3,1.8-10.9,5.5-13.8c3.6-2.9,8-4.4,12.6-4.3c4.6,0,9.1,1.5,12.8,4.3c3.8,2.9,5.7,7.5,5.7,13.8
	v67h27.2v-61.5c0-18.4-4.9-30.6-14.6-36.6c-9.6-6-20.6-9.1-31.9-9.1c-11,0.4-21.7,3.8-30.9,9.9c-9.3,6-14,18-14,35.8v61.4h27.6
	L626.4,314.8z"/>
<path class="st4" d="M587.3,269.7c0.6,0.5,1.1,1.1,1.5,1.7v-24.2h-14.2c-7.4,0-13.4,6-13.4,13.4v5.2h15.6
	C580.7,265.7,584.5,267.1,587.3,269.7z"/>
<path class="st4" d="M475.5,370.2c5.3,4.6,12.3,7.9,21.1,9.8c8.6,1.9,17.6,1.7,26.2-0.6c9.7-2,17.7-7.3,24-15.8
	c3.1-4.6,5.5-9.7,7.1-15c0.5-1.5,0.8-3,1.2-4.6h-27.5c-0.6,2.2-1.6,4.2-2.8,6.1c-3.2,4.6-6.8,7.5-10.8,8.6c-3.9,1.2-8.1,1-12-0.4
	c-3.9-1.4-6.7-3.1-8.3-5.2c-3.9-4.6-6.2-12.8-6.7-24.4c-0.5-11.7,2-20.5,7.5-26.4c1.8-1.8,4.7-3.3,8.7-4.4c3.9-1.2,8-1.1,11.8,0.2
	c3.9,1.3,7.4,4.2,10.4,8.9c0.9,1.4,1.7,3,2.2,4.6H555c-1.1-4.8-2.7-9.5-5-13.9c-4.5-9.3-12.4-16.4-22.1-20
	c-8.7-3.1-18.4-3.9-29.1-2.5s-19.6,6-26.4,13.7c-4.4,5-7.6,10.9-9.3,17.3c-2,6.8-3,13.7-3,20.8c0,8.3,1.2,16.5,3.6,24.4
	C466.1,359.3,470,365.6,475.5,370.2z"/>
<path class="st4" d="M786.4,298.3c-4.5-9.3-12.4-16.4-22-20c-8.7-3.1-18.4-3.9-29.2-2.5c-10.8,1.4-19.6,6-26.4,13.7
	c-4.4,5-7.6,10.9-9.3,17.3c-1.9,6.8-2.9,13.7-3,20.8c0,8.3,1.2,16.5,3.5,24.4c2.4,7.8,6.3,14,11.8,18.7c5.3,4.6,12.3,7.9,21.1,9.8
	c8.6,1.9,17.6,1.7,26.2-0.6c9.7-2,17.7-7.3,24-15.8c3.1-4.6,5.5-9.7,7.1-15c2-6.9,2.9-14,2.8-21.1
	C793,316.7,790.8,306.8,786.4,298.3z M761.1,350.6c-3.2,4.6-6.8,7.5-10.8,8.6c-3.9,1.2-8.1,1-12-0.4c-3.9-1.4-6.7-3.1-8.3-5.2
	c-3.9-4.6-6.2-12.8-6.7-24.4c-0.5-11.7,2-20.4,7.5-26.3c1.8-1.8,4.7-3.3,8.7-4.4c3.9-1.1,8-1.1,11.8,0.2c3.9,1.3,7.4,4.2,10.4,8.9
	c3,4.6,4.5,11.5,4.5,20.8C766,338.6,764.3,346,761.1,350.6L761.1,350.6z"/>
<path class="st4" d="M390.5,314.8c0-6.3,1.8-10.9,5.5-13.8c3.6-2.9,8-4.4,12.6-4.3c4.6,0,9.1,1.5,12.8,4.3c3.8,2.9,5.7,7.5,5.7,13.8
	v67h27.2v-61.5c0-18.4-4.9-30.6-14.6-36.6c-9.6-6-20.6-9.1-31.9-9.1c-11,0.4-21.7,3.8-30.9,9.9c-9.3,6-14,18-14,35.8v61.4h27.6
	L390.5,314.8z"/>
<path class="st4" d="M809,372.1c0.1,5.3-4.1,9.8-9.4,9.9c-5.3,0.1-9.8-4.1-9.9-9.4c-0.1-5.3,4.1-9.8,9.4-9.9c0.1,0,0.2,0,0.3,0
	C804.6,362.6,808.9,366.8,809,372.1C809,372,809,372,809,372.1z M792,372.1c-0.1,4,3.1,7.4,7.1,7.5c0.1,0,0.1,0,0.2,0
	c4,0,7.2-3.3,7.2-7.3c0-0.1,0-0.1,0-0.2c0.2-4-2.8-7.5-6.9-7.7c-4-0.2-7.5,2.8-7.7,6.9C792,371.5,792,371.8,792,372.1z M797.8,376.9
	h-2.1v-9.4c1.2-0.2,2.4-0.3,3.6-0.3c1.1-0.1,2.3,0.1,3.2,0.8c0.6,0.5,1,1.2,1,2c-0.1,1.1-0.9,2-2,2.2v0.1c0.9,0.3,1.4,1,1.7,2.3
	c0.1,0.8,0.3,1.6,0.7,2.3h-2.3c-0.4-0.7-0.6-1.5-0.8-2.3c-0.2-1-0.8-1.4-2-1.4h-1L797.8,376.9z M797.9,371.7h1
	c1.2,0,2.2-0.4,2.2-1.4s-0.6-1.4-2-1.4c-0.4,0-0.8,0-1.2,0.1L797.9,371.7z"/>
</svg>
