<?xml version="1.0" encoding="UTF-8"?>
<svg id="Layer_1" data-name="Layer 1" xmlns="http://www.w3.org/2000/svg" viewBox="0 0 256 256">
  <defs>
    <style>
      .cls-1 {
        fill: #075da9;
      }
    </style>
  </defs>
  <path id="path13194" class="cls-1" d="M227.54,114.51h6.12l7.33,19.19h.08l3.85-19.19h5.44l-5.7,26.97h-5.93l-7.4-18.92h-.08l-3.85,18.92h-5.55l5.71-26.97h0Zm-18.82-.64c7.29,0,11.97,4,11.97,11.56,0,8.88-5.29,16.7-14.73,16.7-7.55,0-11.98-4.35-11.98-11.94,0-8.72,5.63-16.32,14.73-16.32m-2.68,23.27c5.82,0,8.73-6.2,8.73-11.3,0-3.78-1.66-6.99-6-6.99-6.09,0-8.84,6.16-8.84,11.33,0,3.7,1.81,6.95,6.12,6.95m-35.21-22.63h12.88c4.87-.08,8.05,1.85,8.05,7.06,0,3.67-2.57,6.73-6.19,7.25v.08c2.22,.68,2.79,2.64,2.79,4.76,0,1.21-.19,3.02-.19,4.68,0,1.21,.08,2.34,.38,3.13h-5.78c-.15-.64-.27-1.21-.27-1.81,0-1.81,.3-3.66,.3-5.48,0-2.61-1.55-3.25-3.89-3.25h-5.59l-2.23,10.54h-5.93l5.67-26.97Zm3.4,12.2h5.48c3.13-.04,6.12-1.25,6.12-4.27s-2.04-3.32-4.38-3.32h-5.63l-1.58,7.59h0Zm-28.6-12.2h20.59l-1.02,4.99h-14.66l-1.21,5.78h13.56l-.98,4.61h-13.56l-1.4,6.61h14.88l-1.06,4.99h-20.82l5.67-26.97h0Zm-27.96,0h6.12l7.33,19.19h.07l3.86-19.19h5.44l-5.7,26.97h-5.93l-7.4-18.92h-.08l-3.85,18.92h-5.56l5.7-26.97h0Zm-25.24,0h20.59l-1.02,4.99h-14.66l-1.21,5.78h13.56l-.98,4.61h-13.56l-1.4,6.61h14.88l-1.06,4.99h-20.81l5.66-26.97h0Zm-13.94,24.21h-.08c-1.78,2.42-4.3,3.4-6.8,3.4-7.56,0-11.97-4.35-11.97-11.94,0-8.72,5.63-16.32,14.73-16.32,6.31,0,11.45,2.94,11.45,9.56h-5.93c-.15-3.25-2.19-4.57-5.48-4.57-6.08,0-8.84,6.16-8.84,11.33,0,3.7,1.81,6.95,6.12,6.95s6.46-2.38,7.48-5.82h-6.23l.94-4.42h11.45l-3.1,14.58h-3.74v-2.76h0Zm-39.93-24.21h20.59l-1.02,4.99h-14.66l-1.21,5.78h13.56l-.98,4.61h-13.56l-1.4,6.61h14.88l-1.06,4.99h-20.81l5.67-26.97h0Zm-27.27,0h12.88c4.87-.08,8.05,1.85,8.05,7.06,0,3.67-2.57,6.73-6.19,7.25v.08c2.23,.68,2.8,2.64,2.8,4.76,0,1.21-.19,3.02-.19,4.68,0,1.21,.08,2.34,.38,3.13h-5.78c-.15-.64-.27-1.21-.27-1.81,0-1.81,.3-3.66,.3-5.48,0-2.61-1.55-3.25-3.89-3.25h-5.59l-2.23,10.54H5.64l5.67-26.97Zm3.4,12.2h5.48c3.14-.04,6.12-1.25,6.12-4.27s-2.04-3.32-4.38-3.32h-5.63l-1.59,7.59Z"/>
</svg>